<svg xmlns="http://www.w3.org/2000/svg" width="20.02" height="20.056" viewBox="0 0 20.02 20.056">
  <path id="Icon_feather-phone-call" data-name="Icon feather-phone-call" d="M14.916,5.132A4.54,4.54,0,0,1,18.5,8.719M14.916,1.5a8.172,8.172,0,0,1,7.219,7.21m-.908,7.246v2.724A1.816,1.816,0,0,1,19.247,20.5a17.969,17.969,0,0,1-7.836-2.788A17.706,17.706,0,0,1,5.963,12.26,17.969,17.969,0,0,1,3.175,4.387,1.816,1.816,0,0,1,4.982,2.408H7.706A1.816,1.816,0,0,1,9.522,3.97a11.659,11.659,0,0,0,.636,2.551,1.816,1.816,0,0,1-.409,1.916L8.6,9.59a14.528,14.528,0,0,0,5.448,5.448L15.2,13.885a1.816,1.816,0,0,1,1.916-.409,11.659,11.659,0,0,0,2.551.636A1.816,1.816,0,0,1,21.226,15.955Z" transform="translate(-2.667 -0.948)" fill="none" stroke="#fff" stroke-linecap="round" stroke-linejoin="round" stroke-width="1"/>
</svg>
