<svg xmlns="http://www.w3.org/2000/svg" width="22.667" height="21.682" viewBox="0 0 22.667 21.682">
  <g id="Icon_feather-shopping-cart" data-name="Icon feather-shopping-cart" transform="translate(-1 -1)">
    <path id="Path_4" data-name="Path 4" d="M13.97,30.985A.985.985,0,1,1,12.985,30,.985.985,0,0,1,13.97,30.985Z" transform="translate(-3.606 -9.788)" fill="none" stroke="#fff" stroke-linecap="round" stroke-linejoin="round" stroke-width="1"/>
    <path id="Path_5" data-name="Path 5" d="M30.47,30.985A.985.985,0,1,1,29.485,30,.985.985,0,0,1,30.47,30.985Z" transform="translate(-9.273 -9.788)" fill="none" stroke="#fff" stroke-linecap="round" stroke-linejoin="round" stroke-width="1"/>
    <path id="Path_6" data-name="Path 6" d="M1.5,1.5H5.439L8.079,14.687a1.97,1.97,0,0,0,1.97,1.586h9.573a1.97,1.97,0,0,0,1.97-1.586l1.576-8.263H6.424" transform="translate(0 0)" fill="none" stroke="#fff" stroke-linecap="round" stroke-linejoin="round" stroke-width="1"/>
  </g>
</svg>
